<svg width="78" height="34" viewBox="0 0 78 34" fill="none" xmlns="http://www.w3.org/2000/svg">
<mask id="path-1-inside-1_133_7357" fill="white">
<path fill-rule="evenodd" clip-rule="evenodd" d="M4.52387 31.1094L6.883 33.4685C7.59168 34.1772 8.74069 34.1772 9.44938 33.4685L11.8085 31.1094C12.1488 30.769 12.34 30.3075 12.34 29.8262V26.2188C12.34 25.9934 12.2505 25.7772 12.0911 25.6178L10.8832 24.4099C10.5512 24.0779 10.5512 23.5397 10.8832 23.2078L11.739 22.352C12.0709 22.02 12.0709 21.4818 11.739 21.1499L10.8832 20.2941C10.5512 19.9621 10.5512 19.4239 10.8832 19.092L12.0911 17.8841C12.2505 17.7247 12.34 17.5085 12.34 17.2831V15.3809L14.8189 13.6021C15.769 12.9204 16.3324 11.8227 16.3324 10.6533V3.62942C16.3324 1.62494 14.7074 0 12.703 0H3.62942C1.62495 0 0 1.62495 0 3.62942V10.6533C0 11.8227 0.563408 12.9204 1.51348 13.6021L3.99236 15.3809V29.8262C3.99236 30.3075 4.18355 30.769 4.52387 31.1094ZM8.245 6.12C9.4186 6.12 10.37 5.16861 10.37 3.995C10.37 2.8214 9.4186 1.87 8.245 1.87C7.07139 1.87 6.12 2.8214 6.12 3.995C6.12 5.16861 7.07139 6.12 8.245 6.12Z"/>
<path d="M43.4415 12.461V30.09H38.1715V12.461H43.4415Z"/>
<path d="M43.9855 7.633C43.9855 8.05233 43.9005 8.449 43.7305 8.823C43.5605 9.18567 43.3282 9.50867 43.0335 9.792C42.7389 10.064 42.3932 10.285 41.9965 10.455C41.6112 10.6137 41.1975 10.693 40.7555 10.693C40.3249 10.693 39.9225 10.6137 39.5485 10.455C39.1745 10.285 38.8402 10.064 38.5455 9.792C38.2622 9.50867 38.0355 9.18567 37.8655 8.823C37.7069 8.449 37.6275 8.05233 37.6275 7.633C37.6275 7.20233 37.7069 6.8 37.8655 6.426C38.0355 6.052 38.2622 5.72333 38.5455 5.44C38.8402 5.15667 39.1745 4.93567 39.5485 4.777C39.9225 4.61833 40.3249 4.539 40.7555 4.539C41.1975 4.539 41.6112 4.61833 41.9965 4.777C42.3932 4.93567 42.7389 5.15667 43.0335 5.44C43.3282 5.72333 43.5605 6.052 43.7305 6.426C43.9005 6.8 43.9855 7.20233 43.9855 7.633Z"/>
<path d="M35.3214 16.643C35.1627 16.8357 35.0097 16.9887 34.8624 17.102C34.715 17.2153 34.5054 17.272 34.2334 17.272C33.9727 17.272 33.7347 17.2097 33.5194 17.085C33.3154 16.9603 33.083 16.8243 32.8224 16.677C32.5617 16.5183 32.2557 16.3767 31.9044 16.252C31.553 16.1273 31.1167 16.065 30.5954 16.065C29.9494 16.065 29.3884 16.184 28.9124 16.422C28.4477 16.66 28.0624 17 27.7564 17.442C27.4504 17.884 27.2237 18.428 27.0764 19.074C26.929 19.7087 26.8554 20.4283 26.8554 21.233C26.8554 22.9217 27.1784 24.2193 27.8244 25.126C28.4817 26.0327 29.3827 26.486 30.5274 26.486C31.1394 26.486 31.621 26.4123 31.9724 26.265C32.335 26.1063 32.641 25.9363 32.8904 25.755C33.1397 25.5623 33.3664 25.3867 33.5704 25.228C33.7857 25.0693 34.052 24.99 34.3694 24.99C34.7887 24.99 35.106 25.143 35.3214 25.449L36.8514 27.336C36.3074 27.9593 35.735 28.4693 35.1344 28.866C34.5337 29.2513 33.916 29.5573 33.2814 29.784C32.658 29.9993 32.029 30.1467 31.3944 30.226C30.7597 30.3167 30.142 30.362 29.5414 30.362C28.4647 30.362 27.4334 30.158 26.4474 29.75C25.4727 29.342 24.6114 28.7527 23.8634 27.982C23.1267 27.2 22.5374 26.2423 22.0954 25.109C21.6647 23.9757 21.4494 22.6837 21.4494 21.233C21.4494 19.9637 21.6364 18.7793 22.0104 17.68C22.3957 16.5693 22.9567 15.6117 23.6934 14.807C24.4414 13.991 25.3594 13.3507 26.4474 12.886C27.5467 12.4213 28.816 12.189 30.2554 12.189C31.638 12.189 32.8507 12.41 33.8934 12.852C34.936 13.294 35.8767 13.94 36.7154 14.79L35.3214 16.643Z"/>
<path fill-rule="evenodd" clip-rule="evenodd" d="M58.048 12.818C56.9487 12.3987 55.7303 12.189 54.393 12.189C53.0443 12.189 51.8147 12.3987 50.704 12.818C49.6047 13.2373 48.6526 13.838 47.848 14.62C47.0547 15.402 46.437 16.354 45.995 17.476C45.5643 18.5867 45.349 19.839 45.349 21.233C45.349 22.6383 45.5643 23.9077 45.995 25.041C46.437 26.163 47.0547 27.1207 47.848 27.914C48.6526 28.696 49.6047 29.3023 50.704 29.733C51.8147 30.1523 53.0443 30.362 54.393 30.362C55.7303 30.362 56.9487 30.1523 58.048 29.733C59.1473 29.3023 60.088 28.696 60.87 27.914C61.6633 27.1207 62.2753 26.163 62.706 25.041C63.148 23.9077 63.369 22.6383 63.369 21.233C63.369 19.839 63.148 18.5867 62.706 17.476C62.2753 16.354 61.6633 15.402 60.87 14.62C60.088 13.838 59.1473 13.2373 58.048 12.818ZM57.062 25.177C56.4953 26.027 55.6056 26.452 54.393 26.452C53.1463 26.452 52.234 26.027 51.656 25.177C51.078 24.3157 50.789 23.0123 50.789 21.267C50.789 19.5217 51.078 18.224 51.656 17.374C52.234 16.524 53.1463 16.099 54.393 16.099C55.6056 16.099 56.4953 16.524 57.062 17.374C57.64 18.224 57.929 19.5217 57.929 21.267C57.929 23.0123 57.64 24.3157 57.062 25.177Z"/>
<path d="M76.3758 16.32C76.2398 16.5353 76.0925 16.6883 75.9338 16.779C75.7865 16.8697 75.5938 16.915 75.3558 16.915C75.1065 16.915 74.8572 16.864 74.6078 16.762C74.3585 16.6487 74.0865 16.5297 73.7918 16.405C73.5085 16.2803 73.1855 16.167 72.8228 16.065C72.4602 15.9517 72.0465 15.895 71.5818 15.895C70.9132 15.895 70.3975 16.0253 70.0348 16.286C69.6835 16.5353 69.5078 16.8867 69.5078 17.34C69.5078 17.6687 69.6212 17.9407 69.8478 18.156C70.0858 18.3713 70.3975 18.564 70.7828 18.734C71.1682 18.8927 71.6045 19.0457 72.0918 19.193C72.5792 19.3403 73.0778 19.5047 73.5878 19.686C74.0978 19.8673 74.5965 20.0827 75.0838 20.332C75.5712 20.57 76.0075 20.8703 76.3928 21.233C76.7782 21.5843 77.0842 22.015 77.3108 22.525C77.5488 23.035 77.6678 23.647 77.6678 24.361C77.6678 25.2337 77.5092 26.0383 77.1918 26.775C76.8745 27.5117 76.3985 28.1463 75.7638 28.679C75.1405 29.2117 74.3642 29.6253 73.4348 29.92C72.5168 30.2147 71.4572 30.362 70.2558 30.362C69.6552 30.362 69.0545 30.3053 68.4538 30.192C67.8532 30.0787 67.2695 29.9257 66.7028 29.733C66.1475 29.5403 65.6318 29.3137 65.1558 29.053C64.6798 28.781 64.2718 28.492 63.9318 28.186L65.1558 26.248C65.2918 26.0213 65.4618 25.8457 65.6658 25.721C65.8812 25.585 66.1532 25.517 66.4818 25.517C66.7878 25.517 67.0598 25.585 67.2978 25.721C67.5472 25.857 67.8135 26.0043 68.0968 26.163C68.3802 26.3217 68.7088 26.469 69.0828 26.605C69.4682 26.741 69.9498 26.809 70.5278 26.809C70.9358 26.809 71.2815 26.7693 71.5648 26.69C71.8482 26.5993 72.0748 26.4803 72.2448 26.333C72.4148 26.1857 72.5395 26.0213 72.6188 25.84C72.6982 25.6587 72.7378 25.4717 72.7378 25.279C72.7378 24.9277 72.6188 24.6387 72.3808 24.412C72.1428 24.1853 71.8312 23.9927 71.4458 23.834C71.0605 23.664 70.6185 23.511 70.1198 23.375C69.6325 23.2277 69.1338 23.0633 68.6238 22.882C68.1138 22.7007 67.6095 22.4853 67.1108 22.236C66.6235 21.9753 66.1872 21.6523 65.8018 21.267C65.4165 20.8703 65.1048 20.3887 64.8668 19.822C64.6288 19.2553 64.5098 18.5697 64.5098 17.765C64.5098 17.017 64.6515 16.3087 64.9348 15.64C65.2295 14.96 65.6658 14.365 66.2438 13.855C66.8218 13.345 67.5472 12.9427 68.4198 12.648C69.2925 12.342 70.3125 12.189 71.4798 12.189C72.1145 12.189 72.7265 12.2457 73.3158 12.359C73.9165 12.4723 74.4775 12.631 74.9988 12.835C75.5202 13.039 75.9962 13.2827 76.4268 13.566C76.8575 13.838 77.2372 14.1383 77.5658 14.467L76.3758 16.32Z"/>
</mask>
<path fill-rule="evenodd" clip-rule="evenodd" d="M4.52387 31.1094L6.883 33.4685C7.59168 34.1772 8.74069 34.1772 9.44938 33.4685L11.8085 31.1094C12.1488 30.769 12.34 30.3075 12.34 29.8262V26.2188C12.34 25.9934 12.2505 25.7772 12.0911 25.6178L10.8832 24.4099C10.5512 24.0779 10.5512 23.5397 10.8832 23.2078L11.739 22.352C12.0709 22.02 12.0709 21.4818 11.739 21.1499L10.8832 20.2941C10.5512 19.9621 10.5512 19.4239 10.8832 19.092L12.0911 17.8841C12.2505 17.7247 12.34 17.5085 12.34 17.2831V15.3809L14.8189 13.6021C15.769 12.9204 16.3324 11.8227 16.3324 10.6533V3.62942C16.3324 1.62494 14.7074 0 12.703 0H3.62942C1.62495 0 0 1.62495 0 3.62942V10.6533C0 11.8227 0.563408 12.9204 1.51348 13.6021L3.99236 15.3809V29.8262C3.99236 30.3075 4.18355 30.769 4.52387 31.1094ZM8.245 6.12C9.4186 6.12 10.37 5.16861 10.37 3.995C10.37 2.8214 9.4186 1.87 8.245 1.87C7.07139 1.87 6.12 2.8214 6.12 3.995C6.12 5.16861 7.07139 6.12 8.245 6.12Z" fill="#FBFEF9"/>
<path d="M43.4415 12.461V30.09H38.1715V12.461H43.4415Z" fill="#FBFEF9"/>
<path d="M43.9855 7.633C43.9855 8.05233 43.9005 8.449 43.7305 8.823C43.5605 9.18567 43.3282 9.50867 43.0335 9.792C42.7389 10.064 42.3932 10.285 41.9965 10.455C41.6112 10.6137 41.1975 10.693 40.7555 10.693C40.3249 10.693 39.9225 10.6137 39.5485 10.455C39.1745 10.285 38.8402 10.064 38.5455 9.792C38.2622 9.50867 38.0355 9.18567 37.8655 8.823C37.7069 8.449 37.6275 8.05233 37.6275 7.633C37.6275 7.20233 37.7069 6.8 37.8655 6.426C38.0355 6.052 38.2622 5.72333 38.5455 5.44C38.8402 5.15667 39.1745 4.93567 39.5485 4.777C39.9225 4.61833 40.3249 4.539 40.7555 4.539C41.1975 4.539 41.6112 4.61833 41.9965 4.777C42.3932 4.93567 42.7389 5.15667 43.0335 5.44C43.3282 5.72333 43.5605 6.052 43.7305 6.426C43.9005 6.8 43.9855 7.20233 43.9855 7.633Z" fill="#FBFEF9"/>
<path d="M35.3214 16.643C35.1627 16.8357 35.0097 16.9887 34.8624 17.102C34.715 17.2153 34.5054 17.272 34.2334 17.272C33.9727 17.272 33.7347 17.2097 33.5194 17.085C33.3154 16.9603 33.083 16.8243 32.8224 16.677C32.5617 16.5183 32.2557 16.3767 31.9044 16.252C31.553 16.1273 31.1167 16.065 30.5954 16.065C29.9494 16.065 29.3884 16.184 28.9124 16.422C28.4477 16.66 28.0624 17 27.7564 17.442C27.4504 17.884 27.2237 18.428 27.0764 19.074C26.929 19.7087 26.8554 20.4283 26.8554 21.233C26.8554 22.9217 27.1784 24.2193 27.8244 25.126C28.4817 26.0327 29.3827 26.486 30.5274 26.486C31.1394 26.486 31.621 26.4123 31.9724 26.265C32.335 26.1063 32.641 25.9363 32.8904 25.755C33.1397 25.5623 33.3664 25.3867 33.5704 25.228C33.7857 25.0693 34.052 24.99 34.3694 24.99C34.7887 24.99 35.106 25.143 35.3214 25.449L36.8514 27.336C36.3074 27.9593 35.735 28.4693 35.1344 28.866C34.5337 29.2513 33.916 29.5573 33.2814 29.784C32.658 29.9993 32.029 30.1467 31.3944 30.226C30.7597 30.3167 30.142 30.362 29.5414 30.362C28.4647 30.362 27.4334 30.158 26.4474 29.75C25.4727 29.342 24.6114 28.7527 23.8634 27.982C23.1267 27.2 22.5374 26.2423 22.0954 25.109C21.6647 23.9757 21.4494 22.6837 21.4494 21.233C21.4494 19.9637 21.6364 18.7793 22.0104 17.68C22.3957 16.5693 22.9567 15.6117 23.6934 14.807C24.4414 13.991 25.3594 13.3507 26.4474 12.886C27.5467 12.4213 28.816 12.189 30.2554 12.189C31.638 12.189 32.8507 12.41 33.8934 12.852C34.936 13.294 35.8767 13.94 36.7154 14.79L35.3214 16.643Z" fill="#FBFEF9"/>
<path fill-rule="evenodd" clip-rule="evenodd" d="M58.048 12.818C56.9487 12.3987 55.7303 12.189 54.393 12.189C53.0443 12.189 51.8147 12.3987 50.704 12.818C49.6047 13.2373 48.6526 13.838 47.848 14.62C47.0547 15.402 46.437 16.354 45.995 17.476C45.5643 18.5867 45.349 19.839 45.349 21.233C45.349 22.6383 45.5643 23.9077 45.995 25.041C46.437 26.163 47.0547 27.1207 47.848 27.914C48.6526 28.696 49.6047 29.3023 50.704 29.733C51.8147 30.1523 53.0443 30.362 54.393 30.362C55.7303 30.362 56.9487 30.1523 58.048 29.733C59.1473 29.3023 60.088 28.696 60.87 27.914C61.6633 27.1207 62.2753 26.163 62.706 25.041C63.148 23.9077 63.369 22.6383 63.369 21.233C63.369 19.839 63.148 18.5867 62.706 17.476C62.2753 16.354 61.6633 15.402 60.87 14.62C60.088 13.838 59.1473 13.2373 58.048 12.818ZM57.062 25.177C56.4953 26.027 55.6056 26.452 54.393 26.452C53.1463 26.452 52.234 26.027 51.656 25.177C51.078 24.3157 50.789 23.0123 50.789 21.267C50.789 19.5217 51.078 18.224 51.656 17.374C52.234 16.524 53.1463 16.099 54.393 16.099C55.6056 16.099 56.4953 16.524 57.062 17.374C57.64 18.224 57.929 19.5217 57.929 21.267C57.929 23.0123 57.64 24.3157 57.062 25.177Z" fill="#FBFEF9"/>
<path d="M76.3758 16.32C76.2398 16.5353 76.0925 16.6883 75.9338 16.779C75.7865 16.8697 75.5938 16.915 75.3558 16.915C75.1065 16.915 74.8572 16.864 74.6078 16.762C74.3585 16.6487 74.0865 16.5297 73.7918 16.405C73.5085 16.2803 73.1855 16.167 72.8228 16.065C72.4602 15.9517 72.0465 15.895 71.5818 15.895C70.9132 15.895 70.3975 16.0253 70.0348 16.286C69.6835 16.5353 69.5078 16.8867 69.5078 17.34C69.5078 17.6687 69.6212 17.9407 69.8478 18.156C70.0858 18.3713 70.3975 18.564 70.7828 18.734C71.1682 18.8927 71.6045 19.0457 72.0918 19.193C72.5792 19.3403 73.0778 19.5047 73.5878 19.686C74.0978 19.8673 74.5965 20.0827 75.0838 20.332C75.5712 20.57 76.0075 20.8703 76.3928 21.233C76.7782 21.5843 77.0842 22.015 77.3108 22.525C77.5488 23.035 77.6678 23.647 77.6678 24.361C77.6678 25.2337 77.5092 26.0383 77.1918 26.775C76.8745 27.5117 76.3985 28.1463 75.7638 28.679C75.1405 29.2117 74.3642 29.6253 73.4348 29.92C72.5168 30.2147 71.4572 30.362 70.2558 30.362C69.6552 30.362 69.0545 30.3053 68.4538 30.192C67.8532 30.0787 67.2695 29.9257 66.7028 29.733C66.1475 29.5403 65.6318 29.3137 65.1558 29.053C64.6798 28.781 64.2718 28.492 63.9318 28.186L65.1558 26.248C65.2918 26.0213 65.4618 25.8457 65.6658 25.721C65.8812 25.585 66.1532 25.517 66.4818 25.517C66.7878 25.517 67.0598 25.585 67.2978 25.721C67.5472 25.857 67.8135 26.0043 68.0968 26.163C68.3802 26.3217 68.7088 26.469 69.0828 26.605C69.4682 26.741 69.9498 26.809 70.5278 26.809C70.9358 26.809 71.2815 26.7693 71.5648 26.69C71.8482 26.5993 72.0748 26.4803 72.2448 26.333C72.4148 26.1857 72.5395 26.0213 72.6188 25.84C72.6982 25.6587 72.7378 25.4717 72.7378 25.279C72.7378 24.9277 72.6188 24.6387 72.3808 24.412C72.1428 24.1853 71.8312 23.9927 71.4458 23.834C71.0605 23.664 70.6185 23.511 70.1198 23.375C69.6325 23.2277 69.1338 23.0633 68.6238 22.882C68.1138 22.7007 67.6095 22.4853 67.1108 22.236C66.6235 21.9753 66.1872 21.6523 65.8018 21.267C65.4165 20.8703 65.1048 20.3887 64.8668 19.822C64.6288 19.2553 64.5098 18.5697 64.5098 17.765C64.5098 17.017 64.6515 16.3087 64.9348 15.64C65.2295 14.96 65.6658 14.365 66.2438 13.855C66.8218 13.345 67.5472 12.9427 68.4198 12.648C69.2925 12.342 70.3125 12.189 71.4798 12.189C72.1145 12.189 72.7265 12.2457 73.3158 12.359C73.9165 12.4723 74.4775 12.631 74.9988 12.835C75.5202 13.039 75.9962 13.2827 76.4268 13.566C76.8575 13.838 77.2372 14.1383 77.5658 14.467L76.3758 16.32Z" fill="#FBFEF9"/>
<path fill-rule="evenodd" clip-rule="evenodd" d="M4.52387 31.1094L6.883 33.4685C7.59168 34.1772 8.74069 34.1772 9.44938 33.4685L11.8085 31.1094C12.1488 30.769 12.34 30.3075 12.34 29.8262V26.2188C12.34 25.9934 12.2505 25.7772 12.0911 25.6178L10.8832 24.4099C10.5512 24.0779 10.5512 23.5397 10.8832 23.2078L11.739 22.352C12.0709 22.02 12.0709 21.4818 11.739 21.1499L10.8832 20.2941C10.5512 19.9621 10.5512 19.4239 10.8832 19.092L12.0911 17.8841C12.2505 17.7247 12.34 17.5085 12.34 17.2831V15.3809L14.8189 13.6021C15.769 12.9204 16.3324 11.8227 16.3324 10.6533V3.62942C16.3324 1.62494 14.7074 0 12.703 0H3.62942C1.62495 0 0 1.62495 0 3.62942V10.6533C0 11.8227 0.563408 12.9204 1.51348 13.6021L3.99236 15.3809V29.8262C3.99236 30.3075 4.18355 30.769 4.52387 31.1094ZM8.245 6.12C9.4186 6.12 10.37 5.16861 10.37 3.995C10.37 2.8214 9.4186 1.87 8.245 1.87C7.07139 1.87 6.12 2.8214 6.12 3.995C6.12 5.16861 7.07139 6.12 8.245 6.12Z" stroke="#FBFEF9" stroke-width="2" mask="url(#path-1-inside-1_133_7357)"/>
<path d="M43.4415 12.461V30.09H38.1715V12.461H43.4415Z" stroke="#FBFEF9" stroke-width="2" mask="url(#path-1-inside-1_133_7357)"/>
<path d="M43.9855 7.633C43.9855 8.05233 43.9005 8.449 43.7305 8.823C43.5605 9.18567 43.3282 9.50867 43.0335 9.792C42.7389 10.064 42.3932 10.285 41.9965 10.455C41.6112 10.6137 41.1975 10.693 40.7555 10.693C40.3249 10.693 39.9225 10.6137 39.5485 10.455C39.1745 10.285 38.8402 10.064 38.5455 9.792C38.2622 9.50867 38.0355 9.18567 37.8655 8.823C37.7069 8.449 37.6275 8.05233 37.6275 7.633C37.6275 7.20233 37.7069 6.8 37.8655 6.426C38.0355 6.052 38.2622 5.72333 38.5455 5.44C38.8402 5.15667 39.1745 4.93567 39.5485 4.777C39.9225 4.61833 40.3249 4.539 40.7555 4.539C41.1975 4.539 41.6112 4.61833 41.9965 4.777C42.3932 4.93567 42.7389 5.15667 43.0335 5.44C43.3282 5.72333 43.5605 6.052 43.7305 6.426C43.9005 6.8 43.9855 7.20233 43.9855 7.633Z" stroke="#FBFEF9" stroke-width="2" mask="url(#path-1-inside-1_133_7357)"/>
<path d="M35.3214 16.643C35.1627 16.8357 35.0097 16.9887 34.8624 17.102C34.715 17.2153 34.5054 17.272 34.2334 17.272C33.9727 17.272 33.7347 17.2097 33.5194 17.085C33.3154 16.9603 33.083 16.8243 32.8224 16.677C32.5617 16.5183 32.2557 16.3767 31.9044 16.252C31.553 16.1273 31.1167 16.065 30.5954 16.065C29.9494 16.065 29.3884 16.184 28.9124 16.422C28.4477 16.66 28.0624 17 27.7564 17.442C27.4504 17.884 27.2237 18.428 27.0764 19.074C26.929 19.7087 26.8554 20.4283 26.8554 21.233C26.8554 22.9217 27.1784 24.2193 27.8244 25.126C28.4817 26.0327 29.3827 26.486 30.5274 26.486C31.1394 26.486 31.621 26.4123 31.9724 26.265C32.335 26.1063 32.641 25.9363 32.8904 25.755C33.1397 25.5623 33.3664 25.3867 33.5704 25.228C33.7857 25.0693 34.052 24.99 34.3694 24.99C34.7887 24.99 35.106 25.143 35.3214 25.449L36.8514 27.336C36.3074 27.9593 35.735 28.4693 35.1344 28.866C34.5337 29.2513 33.916 29.5573 33.2814 29.784C32.658 29.9993 32.029 30.1467 31.3944 30.226C30.7597 30.3167 30.142 30.362 29.5414 30.362C28.4647 30.362 27.4334 30.158 26.4474 29.75C25.4727 29.342 24.6114 28.7527 23.8634 27.982C23.1267 27.2 22.5374 26.2423 22.0954 25.109C21.6647 23.9757 21.4494 22.6837 21.4494 21.233C21.4494 19.9637 21.6364 18.7793 22.0104 17.68C22.3957 16.5693 22.9567 15.6117 23.6934 14.807C24.4414 13.991 25.3594 13.3507 26.4474 12.886C27.5467 12.4213 28.816 12.189 30.2554 12.189C31.638 12.189 32.8507 12.41 33.8934 12.852C34.936 13.294 35.8767 13.94 36.7154 14.79L35.3214 16.643Z" stroke="#FBFEF9" stroke-width="2" mask="url(#path-1-inside-1_133_7357)"/>
<path fill-rule="evenodd" clip-rule="evenodd" d="M58.048 12.818C56.9487 12.3987 55.7303 12.189 54.393 12.189C53.0443 12.189 51.8147 12.3987 50.704 12.818C49.6047 13.2373 48.6526 13.838 47.848 14.62C47.0547 15.402 46.437 16.354 45.995 17.476C45.5643 18.5867 45.349 19.839 45.349 21.233C45.349 22.6383 45.5643 23.9077 45.995 25.041C46.437 26.163 47.0547 27.1207 47.848 27.914C48.6526 28.696 49.6047 29.3023 50.704 29.733C51.8147 30.1523 53.0443 30.362 54.393 30.362C55.7303 30.362 56.9487 30.1523 58.048 29.733C59.1473 29.3023 60.088 28.696 60.87 27.914C61.6633 27.1207 62.2753 26.163 62.706 25.041C63.148 23.9077 63.369 22.6383 63.369 21.233C63.369 19.839 63.148 18.5867 62.706 17.476C62.2753 16.354 61.6633 15.402 60.87 14.62C60.088 13.838 59.1473 13.2373 58.048 12.818ZM57.062 25.177C56.4953 26.027 55.6056 26.452 54.393 26.452C53.1463 26.452 52.234 26.027 51.656 25.177C51.078 24.3157 50.789 23.0123 50.789 21.267C50.789 19.5217 51.078 18.224 51.656 17.374C52.234 16.524 53.1463 16.099 54.393 16.099C55.6056 16.099 56.4953 16.524 57.062 17.374C57.64 18.224 57.929 19.5217 57.929 21.267C57.929 23.0123 57.64 24.3157 57.062 25.177Z" stroke="#FBFEF9" stroke-width="2" mask="url(#path-1-inside-1_133_7357)"/>
<path d="M76.3758 16.32C76.2398 16.5353 76.0925 16.6883 75.9338 16.779C75.7865 16.8697 75.5938 16.915 75.3558 16.915C75.1065 16.915 74.8572 16.864 74.6078 16.762C74.3585 16.6487 74.0865 16.5297 73.7918 16.405C73.5085 16.2803 73.1855 16.167 72.8228 16.065C72.4602 15.9517 72.0465 15.895 71.5818 15.895C70.9132 15.895 70.3975 16.0253 70.0348 16.286C69.6835 16.5353 69.5078 16.8867 69.5078 17.34C69.5078 17.6687 69.6212 17.9407 69.8478 18.156C70.0858 18.3713 70.3975 18.564 70.7828 18.734C71.1682 18.8927 71.6045 19.0457 72.0918 19.193C72.5792 19.3403 73.0778 19.5047 73.5878 19.686C74.0978 19.8673 74.5965 20.0827 75.0838 20.332C75.5712 20.57 76.0075 20.8703 76.3928 21.233C76.7782 21.5843 77.0842 22.015 77.3108 22.525C77.5488 23.035 77.6678 23.647 77.6678 24.361C77.6678 25.2337 77.5092 26.0383 77.1918 26.775C76.8745 27.5117 76.3985 28.1463 75.7638 28.679C75.1405 29.2117 74.3642 29.6253 73.4348 29.92C72.5168 30.2147 71.4572 30.362 70.2558 30.362C69.6552 30.362 69.0545 30.3053 68.4538 30.192C67.8532 30.0787 67.2695 29.9257 66.7028 29.733C66.1475 29.5403 65.6318 29.3137 65.1558 29.053C64.6798 28.781 64.2718 28.492 63.9318 28.186L65.1558 26.248C65.2918 26.0213 65.4618 25.8457 65.6658 25.721C65.8812 25.585 66.1532 25.517 66.4818 25.517C66.7878 25.517 67.0598 25.585 67.2978 25.721C67.5472 25.857 67.8135 26.0043 68.0968 26.163C68.3802 26.3217 68.7088 26.469 69.0828 26.605C69.4682 26.741 69.9498 26.809 70.5278 26.809C70.9358 26.809 71.2815 26.7693 71.5648 26.69C71.8482 26.5993 72.0748 26.4803 72.2448 26.333C72.4148 26.1857 72.5395 26.0213 72.6188 25.84C72.6982 25.6587 72.7378 25.4717 72.7378 25.279C72.7378 24.9277 72.6188 24.6387 72.3808 24.412C72.1428 24.1853 71.8312 23.9927 71.4458 23.834C71.0605 23.664 70.6185 23.511 70.1198 23.375C69.6325 23.2277 69.1338 23.0633 68.6238 22.882C68.1138 22.7007 67.6095 22.4853 67.1108 22.236C66.6235 21.9753 66.1872 21.6523 65.8018 21.267C65.4165 20.8703 65.1048 20.3887 64.8668 19.822C64.6288 19.2553 64.5098 18.5697 64.5098 17.765C64.5098 17.017 64.6515 16.3087 64.9348 15.64C65.2295 14.96 65.6658 14.365 66.2438 13.855C66.8218 13.345 67.5472 12.9427 68.4198 12.648C69.2925 12.342 70.3125 12.189 71.4798 12.189C72.1145 12.189 72.7265 12.2457 73.3158 12.359C73.9165 12.4723 74.4775 12.631 74.9988 12.835C75.5202 13.039 75.9962 13.2827 76.4268 13.566C76.8575 13.838 77.2372 14.1383 77.5658 14.467L76.3758 16.32Z" stroke="#FBFEF9" stroke-width="2" mask="url(#path-1-inside-1_133_7357)"/>
</svg>
