<svg width="22" height="20" viewBox="0 0 22 20" fill="none" xmlns="http://www.w3.org/2000/svg">
<path d="M21.0039 16.7539L12.5664 2.09375C11.9336 1.00391 10.2812 0.96875 9.64844 2.09375L1.21094 16.7539C0.578125 17.8438 1.38672 19.25 2.6875 19.25H19.5273C20.8281 19.25 21.6367 17.8789 21.0039 16.7539ZM11.125 13.6953C12.0039 13.6953 12.7422 14.4336 12.7422 15.3125C12.7422 16.2266 12.0039 16.9297 11.125 16.9297C10.2109 16.9297 9.50781 16.2266 9.50781 15.3125C9.50781 14.4336 10.2109 13.6953 11.125 13.6953ZM9.57812 7.89453C9.54297 7.64844 9.75391 7.4375 10 7.4375H12.2148C12.4609 7.4375 12.6719 7.64844 12.6367 7.89453L12.3906 12.6758C12.3555 12.9219 12.1797 13.0625 11.9688 13.0625H10.2461C10.0352 13.0625 9.85938 12.9219 9.82422 12.6758L9.57812 7.89453Z" fill="#FBFEF9"/>
</svg>
